# File created by Blade
# Date/Time:  Tue Sep 23 19:22:32 2014
# Frame Rate: 120.000 fps
#------------------------------------------------------
:FULLY-SPECIFIED
:DEGREES
2217
root 6.862814 35.792586 8.968006 238.674501 -8.431833 -131.830033
Spine -53.054297 -9.710738 2.407084
Head -1.689858 -2.689749 42.860851
LeftShoulder -30.726476 48.138830 8.657582
LeftArm 25.447089 -11.257278 -93.951415
LeftForeArm 89.751268 -0.000000 40.556231
LeftHand -7.469573 -0.000000 59.809021
LeftHandThumb1 -26.253704 0.000000 33.147579
RightShoulder -55.537768 -50.952612 14.199337
RightArm 32.605913 32.037351 98.168376
RightForeArm 98.413136 -0.000000 -20.100819
RightHand 2.329151 -0.000000 30.424453
RightHandThumb1 -24.326973 -0.000000 -32.862282
LeftUpLeg -53.703255 30.607381 46.602694
LeftLeg 21.845290 -0.000000 -0.000000
LeftFoot 1.241250 0.447879 -8.246651
LeftToeBase -5.831118 -0.000000 0.000000
RightUpLeg -9.741494 3.795768 -28.128960
RightLeg 120.140228 -0.000000 -0.000000
RightFoot 43.346365 18.136514 -6.336542
RightToeBase 40.079863 -0.000000 -0.000000
2218
root 6.767765 35.766670 9.080032 239.173042 -7.125937 -132.046984
Spine -53.086579 -9.603049 2.278398
Head -1.198824 -3.073493 42.277345
LeftShoulder -30.815330 48.446944 8.612519
LeftArm 25.203274 -9.639794 -93.507849
LeftForeArm 88.649358 -0.000000 44.034448
LeftHand -5.000173 -0.000000 57.827510
LeftHandThumb1 -26.253704 0.000000 33.147579
RightShoulder -55.609877 -50.977259 14.466741
RightArm 32.993833 31.803555 98.467422
RightForeArm 98.900982 -0.000000 -20.030494
RightHand 2.463371 -0.000000 30.273482
RightHandThumb1 -24.326973 -0.000000 -32.862282
LeftUpLeg -52.768830 30.015189 47.126560
LeftLeg 21.843720 -0.000000 -0.000000
LeftFoot 0.892938 -0.492426 -8.872924
LeftToeBase -5.641851 -0.000000 0.000000
RightUpLeg -10.275959 3.886704 -28.600556
RightLeg 120.429410 -0.000000 -0.000000
RightFoot 43.347220 18.809324 -6.341116
RightToeBase 39.919870 -0.000000 -0.000000
2219
root 6.673200 35.750562 9.200362 239.695014 -5.949907 -132.256651
Spine -53.083358 -9.551517 2.228283
Head -0.914687 -3.416234 41.859314
LeftShoulder -30.744920 48.550165 8.775623
LeftArm 24.906265 -8.035047 -92.677173
LeftForeArm 87.831811 -0.000000 47.468896
LeftHand -2.760105 0.000000 55.740744
LeftHandThumb1 -26.253704 0.000000 33.147579
RightShoulder -55.491547 -50.875026 14.675542
RightArm 33.204430 31.816836 98.764739
RightForeArm 99.095817 -0.000000 -19.875494
RightHand 2.598824 -0.000000 30.031678
RightHandThumb1 -24.326973 -0.000000 -32.862282
LeftUpLeg -52.057693 29.595477 47.451949
LeftLeg 21.730008 -0.000000 -0.000000
LeftFoot 0.723745 -1.555994 -9.533688
LeftToeBase -5.573003 -0.000000 0.000000
RightUpLeg -10.904425 3.800880 -28.909537
RightLeg 120.763643 -0.000000 -0.000000
RightFoot 43.537818 19.300533 -6.396239
RightToeBase 39.577991 -0.000000 -0.000000
2220
root 6.578506 35.734406 9.318882 240.154146 -4.840296 -132.497302
Spine -53.012406 -9.608793 2.251745
Head -0.629554 -3.652663 41.559958
LeftShoulder -30.698972 48.683722 8.878579
LeftArm 24.716782 -6.686431 -91.727487
LeftForeArm 86.080478 -0.000000 51.023587
LeftHand 0.308629 -0.000000 53.135065
LeftHandThumb1 -26.253704 0.000000 33.147579
RightShoulder -55.168182 -50.610302 14.669984
RightArm 33.308414 31.818079 98.921311
RightForeArm 99.318575 -0.000000 -20.005572
RightHand 3.015685 0.000000 30.166766
RightHandThumb1 -24.326973 -0.000000 -32.862282
LeftUpLeg -51.446821 29.226849 47.608795
LeftLeg 21.565006 -0.000000 -0.000000
LeftFoot 0.518561 -2.689606 -10.054690
LeftToeBase -4.514511 -0.000000 0.000000
RightUpLeg -11.481801 3.639388 -29.132094
RightLeg 121.157817 -0.000000 -0.000000
RightFoot 43.581171 19.836577 -6.525142
RightToeBase 39.738542 -0.000000 -0.000000
2221
root 6.484223 35.716555 9.437991 240.631808 -3.826143 -132.764524
Spine -52.944616 -9.640263 2.253484
Head -0.522097 -4.049649 41.292767
LeftShoulder -30.354239 48.735288 9.253913
LeftArm 24.573018 -5.421688 -90.600210
LeftForeArm 83.841316 -0.000000 54.498627
LeftHand 3.176117 -0.000000 50.617591
LeftHandThumb1 -26.253704 0.000000 33.147579
RightShoulder -55.231676 -50.384157 15.070068
RightArm 33.311668 31.317528 98.862714
RightForeArm 99.872473 -0.000000 -19.807010
RightHand 2.775074 -0.000000 29.990077
RightHandThumb1 -24.326973 -0.000000 -32.862282
LeftUpLeg -50.994814 28.997758 47.577202
LeftLeg 21.277129 -0.000000 -0.000000
LeftFoot 0.303929 -3.987977 -10.649434
LeftToeBase -4.195503 -0.000000 0.000000
RightUpLeg -12.101149 3.315879 -29.245778
RightLeg 121.579895 -0.000000 -0.000000
RightFoot 43.709337 20.088909 -6.556362
RightToeBase 39.774852 -0.000000 -0.000000
2222
root 6.392142 35.696751 9.552094 240.946646 -2.865786 -133.003320
Spine -52.744724 -9.802520 2.408997
Head -0.358679 -4.377100 41.161945
LeftShoulder -30.201929 48.842766 9.523353
LeftArm 24.547453 -4.320790 -89.379349
LeftForeArm 81.542372 -0.000000 57.929329
LeftHand 6.057595 0.000000 47.872754
LeftHandThumb1 -26.253704 0.000000 33.147579
RightShoulder -54.927767 -50.203019 15.285105
RightArm 33.282340 30.880194 98.814938
RightForeArm 100.346577 -0.000000 -19.647033
RightHand 2.604746 -0.000000 29.860213
RightHandThumb1 -24.326973 -0.000000 -32.862282
LeftUpLeg -50.408134 28.708394 47.581492
LeftLeg 20.861174 -0.000000 -0.000000
LeftFoot 0.094404 -5.136410 -11.245262
LeftToeBase -2.787209 -0.000000 0.000000
RightUpLeg -12.600246 3.003691 -29.246714
RightLeg 122.022526 -0.000000 -0.000000
RightFoot 43.792283 20.265402 -6.600773
RightToeBase 39.742716 -0.000000 -0.000000
2223
root 6.301223 35.670805 9.662875 241.313346 -1.916752 -133.245527
Spine -52.608684 -9.934768 2.595581
Head -0.255169 -4.369461 41.199880
LeftShoulder -29.859079 48.828504 9.951857
LeftArm 24.402208 -3.484330 -88.031083
LeftForeArm 78.551450 -0.000000 61.318210
LeftHand 9.263093 -0.000000 44.704474
LeftHandThumb1 -26.253704 0.000000 33.147579
RightShoulder -54.597147 -49.934209 15.339482
RightArm 33.209902 30.775473 98.934622
RightForeArm 100.555172 0.000000 -19.482326
RightHand 2.829077 -0.000000 29.557827
RightHandThumb1 -24.326973 -0.000000 -32.862282
LeftUpLeg -49.832307 28.413896 47.552805
LeftLeg 20.356374 -0.000000 -0.000000
LeftFoot -0.273700 -6.276354 -11.560204
LeftToeBase -1.453988 -0.000000 0.000000
RightUpLeg -13.165012 2.589108 -29.217056
RightLeg 122.501844 -0.000000 -0.000000
RightFoot 43.761994 20.329277 -6.601927
RightToeBase 40.146345 -0.000000 -0.000000
